<?xml version="1.0" encoding="UTF-8" standalone="no"?>
<!-- Created with Inkscape (http://www.inkscape.org/) -->

<svg
   xmlns:dc="http://purl.org/dc/elements/1.1/"
   xmlns:cc="http://creativecommons.org/ns#"
   xmlns:rdf="http://www.w3.org/1999/02/22-rdf-syntax-ns#"
   xmlns:svg="http://www.w3.org/2000/svg"
   xmlns="http://www.w3.org/2000/svg"
   xmlns:sodipodi="http://sodipodi.sourceforge.net/DTD/sodipodi-0.dtd"
   xmlns:inkscape="http://www.inkscape.org/namespaces/inkscape"
   width="577.27991"
   height="77.216629"
   id="svg2"
   version="1.1"
   inkscape:version="0.92.3 (2405546, 2018-03-11)"
   sodipodi:docname="dot-logo-text.svg"
   viewBox="0 0 577.27991 77.216629">
  <defs
     id="defs4" />
  <sodipodi:namedview
     id="base"
     pagecolor="#ffffff"
     bordercolor="#666666"
     borderopacity="1.0"
     inkscape:pageopacity="0.0"
     inkscape:pageshadow="2"
     inkscape:zoom="0.9899495"
     inkscape:cx="459.1916"
     inkscape:cy="258.03223"
     inkscape:document-units="px"
     inkscape:current-layer="layer1"
     showgrid="true"
     inkscape:window-width="1046"
     inkscape:window-height="848"
     inkscape:window-x="424"
     inkscape:window-y="646"
     inkscape:window-maximized="0"
     inkscape:snap-text-baseline="true"
     fit-margin-top="1"
     fit-margin-right="1"
     fit-margin-bottom="1"
     fit-margin-left="1">
    <inkscape:grid
       type="xygrid"
       id="grid3359"
       originx="-10.821869"
       originy="-900.55594" />
  </sodipodi:namedview>
  <metadata
     id="metadata7">
    <rdf:RDF>
      <cc:Work
         rdf:about="">
        <dc:format>image/svg+xml</dc:format>
        <dc:type
           rdf:resource="http://purl.org/dc/dcmitype/StillImage" />
        <dc:title></dc:title>
      </cc:Work>
    </rdf:RDF>
  </metadata>
  <g
     inkscape:label="Layer 1"
     inkscape:groupmode="layer"
     id="layer1"
     transform="translate(-10.821869,-74.58961)">
    <g
       aria-label="GRAFFATHON 2019"
       style="font-style:oblique;font-variant:normal;font-weight:normal;font-stretch:normal;font-size:52.73558426px;line-height:125%;font-family:'Times New Roman';-inkscape-font-specification:'Times New Roman';text-align:center;letter-spacing:0px;word-spacing:0px;text-anchor:middle;fill:#ffffff;fill-opacity:1;stroke:none;stroke-width:0.50480354px;stroke-linecap:butt;stroke-linejoin:miter;stroke-opacity:1"
       id="text818"
       transform="matrix(1.9809687,0,0,1.9809687,2.493619,-53.014716)">
      <path
         d="m 13.357569,102.88954 q -4.2188465,0 -6.4337411,-2.3731 Q 4.7089334,98.0906 4.7089334,93.608076 V 74.201381 q 0,-4.482525 2.2148945,-6.855626 2.2148946,-2.425837 6.4337411,-2.425837 4.218847,0 6.433742,2.425837 2.214894,2.373101 2.214894,6.855626 v 3.164135 h -5.484501 v -3.533284 q 0,-3.638756 -3.005928,-3.638756 -3.005928,0 -3.005928,3.638756 V 94.02996 q 0,3.58602 3.005928,3.58602 3.005928,0 3.005928,-3.58602 v -7.224775 h -2.900457 v -5.273558 h 8.384958 v 12.076449 q 0,4.482524 -2.214894,6.908364 -2.214895,2.3731 -6.433742,2.3731 z"
         style="font-style:normal;font-variant:normal;font-weight:bold;font-stretch:normal;font-family:'Bebas Neue';-inkscape-font-specification:'Bebas Neue Bold';fill:#ffffff;stroke-width:0.50480354px"
         id="path820"
         inkscape:connector-curvature="0" />
      <path
         d="m 25.730656,65.447274 h 8.595901 q 4.482524,0 6.539212,2.109423 2.056688,2.056688 2.056688,6.381006 v 2.26763 q 0,5.748179 -3.796962,7.27751 v 0.105472 q 2.109423,0.632827 2.953192,2.584043 0.896505,1.951217 0.896505,5.220823 v 6.486477 q 0,1.582067 0.105472,2.584042 0.105471,0.94924 0.527355,1.89848 h -5.906385 q -0.316414,-0.8965 -0.421885,-1.68754 -0.105471,-0.79103 -0.105471,-2.847718 v -6.750154 q 0,-2.531308 -0.843769,-3.533285 -0.791034,-1.001976 -2.794986,-1.001976 h -2.003952 v 15.820673 h -5.800915 z m 7.910338,15.820675 q 1.740274,0 2.584044,-0.896505 0.896505,-0.896505 0.896505,-3.005928 v -2.847722 q 0,-2.003952 -0.738299,-2.900457 -0.685562,-0.896505 -2.214894,-0.896505 h -2.636779 v 10.547117 z"
         style="font-style:normal;font-variant:normal;font-weight:bold;font-stretch:normal;font-family:'Bebas Neue';-inkscape-font-specification:'Bebas Neue Bold';fill:#ffffff;stroke-width:0.50480354px"
         id="path822"
         inkscape:connector-curvature="0" />
      <path
         d="m 51.431015,65.447274 h 7.857603 l 6.011856,36.914906 H 59.49956 l -1.054712,-7.330244 v 0.105472 H 51.8529 l -1.054712,7.224772 h -5.379029 z m 6.328271,24.680253 -2.584044,-18.246512 h -0.105471 l -2.531308,18.246512 z"
         style="font-style:normal;font-variant:normal;font-weight:bold;font-stretch:normal;font-family:'Bebas Neue';-inkscape-font-specification:'Bebas Neue Bold';fill:#ffffff;stroke-width:0.50480354px"
         id="path824"
         inkscape:connector-curvature="0" />
      <path
         d="m 68.063321,65.447274 h 15.346055 v 5.273558 h -9.545141 v 10.283439 h 7.488453 v 5.273558 h -7.488453 v 16.084351 h -5.800914 z"
         style="font-style:normal;font-variant:normal;font-weight:bold;font-stretch:normal;font-family:'Bebas Neue';-inkscape-font-specification:'Bebas Neue Bold';fill:#ffffff;stroke-width:0.50480354px"
         id="path826"
         inkscape:connector-curvature="0" />
      <path
         d="m 86.191182,65.447274 h 15.346058 v 5.273558 h -9.545144 v 10.283439 h 7.488453 v 5.273558 h -7.488453 v 16.084351 h -5.800914 z"
         style="font-style:normal;font-variant:normal;font-weight:bold;font-stretch:normal;font-family:'Bebas Neue';-inkscape-font-specification:'Bebas Neue Bold';fill:#ffffff;stroke-width:0.50480354px"
         id="path828"
         inkscape:connector-curvature="0" />
      <path
         d="m 107.15357,65.447274 h 7.8576 l 6.01186,36.914906 h -5.80091 l -1.05471,-7.330244 v 0.105472 h -6.59195 l -1.05471,7.224772 h -5.37903 z m 6.32827,24.680253 -2.58404,-18.246512 h -0.10547 l -2.53131,18.246512 z"
         style="font-style:normal;font-variant:normal;font-weight:bold;font-stretch:normal;font-family:'Bebas Neue';-inkscape-font-specification:'Bebas Neue Bold';fill:#ffffff;stroke-width:0.50480354px"
         id="path830"
         inkscape:connector-curvature="0" />
      <path
         d="m 125.84916,70.720832 h -6.06459 v -5.273558 h 17.9301 v 5.273558 h -6.06459 v 31.641348 h -5.80092 z"
         style="font-style:normal;font-variant:normal;font-weight:bold;font-stretch:normal;font-family:'Bebas Neue';-inkscape-font-specification:'Bebas Neue Bold';fill:#ffffff;stroke-width:0.50480354px"
         id="path832"
         inkscape:connector-curvature="0" />
      <path
         d="m 140.47175,65.447274 h 5.80091 v 15.029641 h 6.2228 V 65.447274 h 5.80091 v 36.914906 h -5.80091 V 85.750474 h -6.2228 v 16.611706 h -5.80091 z"
         style="font-style:normal;font-variant:normal;font-weight:bold;font-stretch:normal;font-family:'Bebas Neue';-inkscape-font-specification:'Bebas Neue Bold';fill:#ffffff;stroke-width:0.50480354px"
         id="path834"
         inkscape:connector-curvature="0" />
      <path
         d="m 171.00154,102.88954 q -4.27158,0 -6.53921,-2.42584 -2.26763,-2.425835 -2.26763,-6.855624 V 74.201381 q 0,-4.429789 2.26763,-6.855626 2.26763,-2.425837 6.53921,-2.425837 4.27158,0 6.53921,2.425837 2.26763,2.425837 2.26763,6.855626 v 19.406695 q 0,4.429789 -2.26763,6.855624 -2.26763,2.42584 -6.53921,2.42584 z m 0,-5.27356 q 3.00593,0 3.00593,-3.638755 V 73.832232 q 0,-3.638756 -3.00593,-3.638756 -3.00593,0 -3.00593,3.638756 v 20.144993 q 0,3.638755 3.00593,3.638755 z"
         style="font-style:normal;font-variant:normal;font-weight:bold;font-stretch:normal;font-family:'Bebas Neue';-inkscape-font-specification:'Bebas Neue Bold';fill:#ffffff;stroke-width:0.50480354px"
         id="path836"
         inkscape:connector-curvature="0" />
      <path
         d="m 183.7314,65.447274 h 7.27751 l 5.64271,22.096209 h 0.10547 V 65.447274 h 5.16809 v 36.914906 h -5.95912 l -6.9611,-26.947881 h -0.10547 v 26.947881 h -5.16809 z"
         style="font-style:normal;font-variant:normal;font-weight:bold;font-stretch:normal;font-family:'Bebas Neue';-inkscape-font-specification:'Bebas Neue Bold';fill:#ffffff;stroke-width:0.50480354px"
         id="path838"
         inkscape:connector-curvature="0" />
      <path
         d="m 214.62869,98.354278 q 0,-3.955169 1.26566,-6.750155 1.26565,-2.847721 4.53526,-6.275534 3.21687,-3.427813 4.42979,-5.85365 1.26565,-2.425837 1.26565,-5.062616 0,-2.373101 -0.79103,-3.269606 -0.7383,-0.949241 -2.2149,-0.949241 -3.00592,0 -3.00592,3.638756 V 77.7874 h -5.48451 v -3.586019 q 0,-4.482525 2.2149,-6.855626 2.21489,-2.425837 6.43374,-2.425837 4.21885,0 6.43374,2.425837 2.2149,2.373101 2.2149,6.855626 0,3.375077 -1.63481,6.591948 -1.58206,3.21687 -5.53723,7.382981 -2.58405,2.742251 -3.48055,4.482525 -0.89651,1.687539 -0.89651,3.638755 v 0.791034 h 11.02174 v 5.273556 h -16.76992 z"
         style="font-style:normal;font-variant:normal;font-weight:bold;font-stretch:normal;font-family:'Bebas Neue';-inkscape-font-specification:'Bebas Neue Bold';fill:#ffffff;stroke-width:0.50480354px"
         id="path840"
         inkscape:connector-curvature="0" />
      <path
         d="m 244.23396,102.88954 q -4.27158,0 -6.53921,-2.42584 -2.26763,-2.425835 -2.26763,-6.855624 V 74.201381 q 0,-4.429789 2.26763,-6.855626 2.26763,-2.425837 6.53921,-2.425837 4.27158,0 6.53921,2.425837 2.26763,2.425837 2.26763,6.855626 v 19.406695 q 0,4.429789 -2.26763,6.855624 -2.26763,2.42584 -6.53921,2.42584 z m 0,-5.27356 q 3.00593,0 3.00593,-3.638755 V 73.832232 q 0,-3.638756 -3.00593,-3.638756 -3.00593,0 -3.00593,3.638756 v 20.144993 q 0,3.638755 3.00593,3.638755 z"
         style="font-style:normal;font-variant:normal;font-weight:bold;font-stretch:normal;font-family:'Bebas Neue';-inkscape-font-specification:'Bebas Neue Bold';fill:#ffffff;stroke-width:0.50480354px"
         id="path842"
         inkscape:connector-curvature="0" />
      <path
         d="m 265.08511,74.201381 h -6.0646 v -4.113376 q 2.47858,0 3.95517,-0.421885 1.52933,-0.421884 2.42584,-1.371125 0.8965,-1.001976 1.58207,-2.847721 h 3.90243 v 36.914906 h -5.80091 z"
         style="font-style:normal;font-variant:normal;font-weight:bold;font-stretch:normal;font-family:'Bebas Neue';-inkscape-font-specification:'Bebas Neue Bold';fill:#ffffff;stroke-width:0.50480354px"
         id="path844"
         inkscape:connector-curvature="0" />
      <path
         d="m 286.25268,102.88954 q -4.21885,0 -6.43374,-2.3731 -2.2149,-2.42584 -2.2149,-6.908364 v -0.685563 h 5.4845 v 1.054712 q 0,3.638755 3.00593,3.638755 1.63481,0 2.42584,-1.001976 0.79103,-1.001976 0.79103,-3.533284 v -7.066569 h -0.10547 q -1.52933,3.216871 -5.27356,3.216871 -3.16413,0 -4.79893,-2.162159 -1.63481,-2.162159 -1.63481,-6.275534 v -6.591948 q 0,-4.429789 2.26763,-6.855626 2.26763,-2.425837 6.53921,-2.425837 4.27159,0 6.53922,2.425837 2.26763,2.425837 2.26763,6.855626 v 19.090281 q 0,9.597878 -8.85958,9.597878 z m 0.0527,-18.932076 q 3.00593,0 3.00593,-3.638756 v -6.539212 q 0,-3.58602 -3.00593,-3.58602 -3.00592,0 -3.00592,3.58602 v 6.539212 q 0,3.638756 3.00592,3.638756 z"
         style="font-style:normal;font-variant:normal;font-weight:bold;font-stretch:normal;font-family:'Bebas Neue';-inkscape-font-specification:'Bebas Neue Bold';fill:#ffffff;stroke-width:0.50480354px"
         id="path846"
         inkscape:connector-curvature="0" />
    </g>
  </g>
</svg>
